<svg width="307" height="263" viewBox="0 0 307 263" fill="none" xmlns="http://www.w3.org/2000/svg">
<path d="M208.586 34V22.8H217.418V34H216.154V23.952H209.85V34H208.586ZM227.242 32.928C226.41 33.7707 225.381 34.192 224.154 34.192C222.927 34.192 221.903 33.7707 221.082 32.928C220.271 32.0853 219.866 31.0667 219.866 29.872C219.866 28.688 220.277 27.6747 221.098 26.832C221.93 25.9787 222.959 25.552 224.186 25.552C225.413 25.552 226.437 25.9733 227.258 26.816C228.079 27.6587 228.49 28.6773 228.49 29.872C228.49 31.056 228.074 32.0747 227.242 32.928ZM224.186 33.088C225.071 33.088 225.797 32.7787 226.362 32.16C226.938 31.5413 227.226 30.7787 227.226 29.872C227.226 28.976 226.927 28.2133 226.33 27.584C225.743 26.9547 225.018 26.64 224.154 26.64C223.269 26.64 222.543 26.9547 221.978 27.584C221.413 28.2027 221.13 28.9653 221.13 29.872C221.13 30.768 221.423 31.5307 222.01 32.16C222.597 32.7787 223.322 33.088 224.186 33.088ZM229.506 36.064V32.912H230.402C231.138 31.5573 231.506 29.6427 231.506 27.168V25.728H237.394V32.912H238.642L238.45 36.064H237.426V34H230.738L230.514 36.064H229.506ZM231.714 32.912H236.162V26.816H232.69V27.968C232.69 30.048 232.364 31.696 231.714 32.912ZM240.331 34V25.728H247.499V34H246.267V26.816H241.563V34H240.331ZM250.253 34V25.728H251.485V32.272L256.397 25.728H257.597V34H256.365V27.456L251.437 34H250.253ZM260.347 34V25.728H261.579V32.912H265.611V25.728H266.843V32.912H270.875V25.728H272.123V34H260.347ZM274.878 34V25.728H276.11V32.272L281.022 25.728H282.222V34H280.99V27.456L276.062 34H274.878ZM288.7 34.192C287.505 34.192 286.497 33.7707 285.676 32.928C284.865 32.0747 284.46 31.056 284.46 29.872C284.46 28.688 284.865 27.6747 285.676 26.832C286.497 25.9787 287.505 25.552 288.7 25.552C289.98 25.552 291.084 26.0427 292.012 27.024L291.228 27.856C290.46 27.0453 289.612 26.64 288.684 26.64C287.852 26.64 287.148 26.9547 286.572 27.584C286.006 28.2027 285.724 28.9653 285.724 29.872C285.724 30.768 286.012 31.5307 286.588 32.16C287.174 32.7787 287.9 33.088 288.764 33.088C289.649 33.088 290.481 32.672 291.26 31.84L292.076 32.592C291.116 33.6587 289.99 34.192 288.7 34.192ZM294.112 34V25.728H295.344V28.832H297.552C298.512 28.832 299.296 29.04 299.904 29.456C300.512 29.8613 300.816 30.48 300.816 31.312C300.816 32.1333 300.534 32.7893 299.968 33.28C299.403 33.76 298.646 34 297.696 34H294.112ZM295.344 32.912H297.584C298.214 32.912 298.699 32.7787 299.04 32.512C299.392 32.2453 299.568 31.856 299.568 31.344C299.568 30.8747 299.387 30.5173 299.024 30.272C298.672 30.016 298.176 29.888 297.536 29.888H295.344V32.912Z" fill="black"/>
<g filter="url(#filter0_f_276_590)">
<ellipse cx="130.658" cy="131.305" rx="80.6584" ry="80.7004" fill="url(#paint0_linear_276_590)"/>
</g>
<ellipse cx="130.658" cy="131.305" rx="80.6584" ry="80.7004" fill="url(#paint1_linear_276_590)"/>
<path d="M76.5841 109.859C76.9444 107.312 77.219 104.751 77.6771 102.223C80.2736 87.9054 90.405 78.1637 104.891 77.6644C122.333 77.0648 139.827 77.0331 157.267 77.6618C173.033 78.2297 184.452 89.9103 184.944 105.69C185.468 122.447 185.468 139.244 184.944 156C184.452 171.78 173.037 183.459 157.268 184.028C139.829 184.658 122.33 184.674 104.892 184.019C89.1232 183.426 78.2223 171.719 77.1675 155.915C77.0765 154.548 76.7834 153.193 76.5841 151.833C76.5841 137.841 76.5841 123.849 76.5841 109.859V109.859ZM130.975 174.676C138.956 174.676 146.945 174.915 154.916 174.621C167.412 174.157 175.099 166.695 175.391 154.204C175.753 138.639 175.753 123.053 175.391 107.487C175.099 94.9977 167.407 87.3613 154.916 87.0958C139.061 86.7603 123.188 86.763 107.333 87.0958C94.9367 87.356 87.2276 94.8379 86.891 107.189C86.4633 122.951 86.4633 138.74 86.891 154.502C87.2276 166.852 94.9367 174.161 107.335 174.621C115.205 174.914 123.095 174.676 130.975 174.676V174.676Z" fill="white"/>
<path d="M130.96 103.128C115.656 103.128 103.247 115.542 103.247 130.854C103.247 146.168 115.656 158.582 130.96 158.582C146.266 158.582 158.673 146.168 158.673 130.854C158.673 115.542 146.266 103.128 130.96 103.128ZM130.96 149.035C120.924 149.035 112.788 140.896 112.788 130.854C112.788 120.813 120.924 112.673 130.96 112.673C140.997 112.673 149.132 120.813 149.132 130.854C149.132 140.896 140.997 149.035 130.96 149.035Z" fill="white"/>
<path d="M166.884 101.863C166.884 105.506 163.933 108.459 160.292 108.459C156.651 108.459 153.699 105.506 153.699 101.863C153.699 98.2192 156.651 95.2661 160.292 95.2661C163.933 95.2661 166.884 98.2192 166.884 101.863Z" fill="white"/>
<g clip-path="url(#clip0_276_590)">
<path d="M228.09 76.229C228.146 76.1045 228.23 75.9914 228.335 75.8963L241.834 63.6468C242.281 63.2551 242.993 63.2664 243.425 63.6718C243.846 64.0675 243.846 64.6946 243.425 65.0902L231.845 75.5983L253.878 75.5983C268.161 75.5835 279.736 65.0805 279.752 52.12C279.752 51.5562 280.256 51.0992 280.877 51.0992C281.498 51.0992 282.002 51.5562 282.002 52.12C281.985 66.2077 269.403 77.6241 253.878 77.6398L231.845 77.6398L243.423 88.1458C243.87 88.5375 243.882 89.1838 243.45 89.5892C243.019 89.9947 242.306 90.0059 241.859 89.6142C241.85 89.606 241.841 89.5977 241.832 89.5892L228.332 77.3397C228.01 77.048 227.913 76.6088 228.087 76.227L228.09 76.229Z" fill="#2196F3"/>
<path d="M242.629 89.8892C243.25 89.8903 243.755 89.434 243.756 88.8702C243.756 88.5984 243.637 88.3377 243.425 88.1457L230.72 76.6189L243.425 65.0921C243.857 64.6866 243.845 64.0404 243.398 63.6487C242.962 63.2665 242.271 63.2665 241.835 63.6487L228.335 75.8982C227.896 76.2968 227.896 76.9429 228.335 77.3416L241.835 89.5911C242.045 89.782 242.331 89.8891 242.629 89.8892Z" fill="black"/>
<path d="M229.129 77.6398L253.878 77.6398C269.403 77.6241 281.985 66.2077 282.002 52.12C282.002 51.5562 281.498 51.0992 280.877 51.0992C280.256 51.0992 279.752 51.5562 279.752 52.12C279.736 65.0805 268.161 75.5836 253.878 75.5982L229.129 75.5982C228.508 75.5982 228.004 76.0552 228.004 76.619C228.004 77.1828 228.508 77.6398 229.129 77.6398Z" fill="black"/>
</g>
<defs>
<filter id="filter0_f_276_590" x="0" y="0.604492" width="261.317" height="261.401" filterUnits="userSpaceOnUse" color-interpolation-filters="sRGB">
<feFlood flood-opacity="0" result="BackgroundImageFix"/>
<feBlend mode="normal" in="SourceGraphic" in2="BackgroundImageFix" result="shape"/>
<feGaussianBlur stdDeviation="25" result="effect1_foregroundBlur_276_590"/>
</filter>
<linearGradient id="paint0_linear_276_590" x1="96.5221" y1="58.463" x2="163.946" y2="203.516" gradientUnits="userSpaceOnUse">
<stop stop-color="#5F3FCB"/>
<stop offset="0.186382" stop-color="#9133B8"/>
<stop offset="0.384582" stop-color="#AF28AA"/>
<stop offset="0.760417" stop-color="#EE2044"/>
<stop offset="1" stop-color="#FFB954"/>
</linearGradient>
<linearGradient id="paint1_linear_276_590" x1="96.5221" y1="58.463" x2="163.946" y2="203.516" gradientUnits="userSpaceOnUse">
<stop stop-color="#5F3FCB"/>
<stop offset="0.186382" stop-color="#9133B8"/>
<stop offset="0.384582" stop-color="#AF28AA"/>
<stop offset="0.760417" stop-color="#EE2044"/>
<stop offset="1" stop-color="#FFB954"/>
</linearGradient>
<clipPath id="clip0_276_590">
<rect width="54" height="49" fill="white" transform="matrix(-1 -8.74228e-08 -8.74228e-08 1 282.002 46)"/>
</clipPath>
</defs>
</svg>
