<svg width="224" height="24" viewBox="0 0 224 24" fill="none" xmlns="http://www.w3.org/2000/svg">
<path d="M14.98 18.08V22.2H14V19H1.2L1.18 22.2H0.2L0.22 18.08H0.98C1.9 18 2.54 17.2267 2.9 15.76C3.27333 14.2933 3.5 12.24 3.58 9.6L3.72 5H12.82V18.08H14.98ZM4.52 9.68C4.44 11.9467 4.26 13.8 3.98 15.24C3.71333 16.68 3.25333 17.6267 2.6 18.08H11.8V5.92H4.64L4.52 9.68ZM27.9027 18.08V19H18.2427V5H27.6027V5.92H19.2627V11.44H26.7227V12.34H19.2627V18.08H27.9027ZM41.8891 5V19H40.8691V5.92H33.6291L33.4491 11.06C33.3691 12.98 33.2024 14.5267 32.9491 15.7C32.7091 16.86 32.3491 17.72 31.8691 18.28C31.3891 18.84 30.7557 19.12 29.9691 19.12C29.6091 19.12 29.2757 19.08 28.9691 19L29.0891 18.06C29.3157 18.1133 29.5357 18.14 29.7491 18.14C30.3624 18.14 30.8557 17.9067 31.2291 17.44C31.6157 16.96 31.9091 16.2067 32.1091 15.18C32.3091 14.1533 32.4424 12.7867 32.5091 11.08L32.7091 5H41.8891ZM80.4977 11.8C81.5377 11.9733 82.3177 12.3533 82.8377 12.94C83.371 13.5267 83.6377 14.3067 83.6377 15.28C83.6377 16.48 83.2177 17.4 82.3777 18.04C81.5377 18.68 80.291 19 78.6377 19H72.6177V5H78.2577C79.7243 5 80.8643 5.30667 81.6777 5.92C82.5043 6.53333 82.9177 7.41333 82.9177 8.56C82.9177 9.37333 82.7043 10.0533 82.2777 10.6C81.851 11.1467 81.2577 11.5467 80.4977 11.8ZM73.6377 11.48H78.2377C79.411 11.48 80.311 11.24 80.9377 10.76C81.5643 10.28 81.8777 9.58667 81.8777 8.68C81.8777 7.76 81.5643 7.06 80.9377 6.58C80.311 6.1 79.411 5.86 78.2377 5.86H73.6377V11.48ZM78.6577 18.14C81.2977 18.14 82.6177 17.1667 82.6177 15.22C82.6177 14.22 82.2843 13.4867 81.6177 13.02C80.951 12.5533 79.9643 12.32 78.6577 12.32H73.6377V18.14H78.6577ZM96.4777 15.06H88.3577L86.5777 19H85.4777L91.9177 5H92.9377L99.3777 19H98.2777L96.4777 15.06ZM96.0977 14.2L92.4177 6.12L88.7577 14.2H96.0977ZM111.261 5V19H110.241V14.6H105.781C105.434 14.6 105.107 14.58 104.801 14.54L101.701 19H100.601L103.841 14.36C102.801 14.0667 102.001 13.54 101.441 12.78C100.881 12.0067 100.601 11.04 100.601 9.88C100.601 8.33333 101.081 7.13333 102.041 6.28C103.014 5.42667 104.327 5 105.981 5H111.261ZM101.641 9.86C101.641 11.1 102.001 12.0533 102.721 12.72C103.441 13.3867 104.494 13.72 105.881 13.72H110.241V5.92H106.061C104.647 5.92 103.554 6.26 102.781 6.94C102.021 7.60667 101.641 8.58 101.641 9.86ZM136.243 18.08V19H126.583V5H135.943V5.92H127.603V11.44H135.063V12.34H127.603V18.08H136.243ZM147.529 11.8C148.569 11.9733 149.349 12.3533 149.869 12.94C150.402 13.5267 150.669 14.3067 150.669 15.28C150.669 16.48 150.249 17.4 149.409 18.04C148.569 18.68 147.322 19 145.669 19H139.649V5H145.289C146.756 5 147.896 5.30667 148.709 5.92C149.536 6.53333 149.949 7.41333 149.949 8.56C149.949 9.37333 149.736 10.0533 149.309 10.6C148.882 11.1467 148.289 11.5467 147.529 11.8ZM140.669 11.48H145.269C146.442 11.48 147.342 11.24 147.969 10.76C148.596 10.28 148.909 9.58667 148.909 8.68C148.909 7.76 148.596 7.06 147.969 6.58C147.342 6.1 146.442 5.86 145.269 5.86H140.669V11.48ZM145.689 18.14C148.329 18.14 149.649 17.1667 149.649 15.22C149.649 14.22 149.316 13.4867 148.649 13.02C147.982 12.5533 146.996 12.32 145.689 12.32H140.669V18.14H145.689ZM159.669 5C161.429 5 162.809 5.42 163.809 6.26C164.809 7.08667 165.309 8.24 165.309 9.72C165.309 11.1867 164.809 12.34 163.809 13.18C162.809 14.0067 161.429 14.42 159.669 14.42H155.669V19H154.649V5H159.669ZM159.669 13.5C161.162 13.5 162.302 13.1733 163.089 12.52C163.876 11.8667 164.269 10.9333 164.269 9.72C164.269 8.50667 163.876 7.57333 163.089 6.92C162.302 6.25333 161.162 5.92 159.669 5.92H155.669V13.5H159.669ZM176.732 15.06H168.612L166.832 19H165.732L172.172 5H173.192L179.632 19H178.532L176.732 15.06ZM176.352 14.2L172.672 6.12L169.012 14.2H176.352ZM188.14 11.68C189.086 11.8933 189.826 12.3 190.36 12.9C190.906 13.5 191.18 14.2267 191.18 15.08C191.18 15.8933 190.933 16.6067 190.44 17.22C189.946 17.8333 189.293 18.3 188.48 18.62C187.666 18.94 186.786 19.1 185.84 19.1C184.92 19.1 184.013 18.94 183.12 18.62C182.24 18.3 181.453 17.8267 180.76 17.2L181.18 16.48C181.793 17.0533 182.493 17.4867 183.28 17.78C184.08 18.06 184.893 18.2 185.72 18.2C186.506 18.2 187.24 18.0733 187.92 17.82C188.6 17.5533 189.14 17.18 189.54 16.7C189.94 16.2067 190.14 15.6267 190.14 14.96C190.14 14.0667 189.793 13.38 189.1 12.9C188.406 12.4067 187.433 12.16 186.18 12.16H183.3V11.28H186.14C187.206 11.28 188.04 11.0533 188.64 10.6C189.24 10.1333 189.54 9.49333 189.54 8.68C189.54 7.77333 189.16 7.06 188.4 6.54C187.653 6.00667 186.72 5.74 185.6 5.74C184.92 5.74 184.233 5.84 183.54 6.04C182.86 6.24 182.206 6.54667 181.58 6.96L181.2 6.1C181.893 5.67333 182.613 5.35333 183.36 5.14C184.12 4.92667 184.873 4.82 185.62 4.82C186.526 4.82 187.353 4.97333 188.1 5.28C188.86 5.57333 189.46 6.00667 189.9 6.58C190.353 7.14 190.58 7.8 190.58 8.56C190.58 9.32 190.36 9.97333 189.92 10.52C189.493 11.0667 188.9 11.4533 188.14 11.68ZM195.157 5H196.177V17.28L205.717 5H206.617V19H205.597V6.74L196.057 19H195.157V5ZM221.261 5V19H220.241V14.6H215.781C215.434 14.6 215.107 14.58 214.801 14.54L211.701 19H210.601L213.841 14.36C212.801 14.0667 212.001 13.54 211.441 12.78C210.881 12.0067 210.601 11.04 210.601 9.88C210.601 8.33333 211.081 7.13333 212.041 6.28C213.014 5.42667 214.327 5 215.981 5H221.261ZM211.641 9.86C211.641 11.1 212.001 12.0533 212.721 12.72C213.441 13.3867 214.494 13.72 215.881 13.72H220.241V5.92H216.061C214.647 5.92 213.554 6.26 212.781 6.94C212.021 7.60667 211.641 8.58 211.641 9.86Z" fill="black"/>
<g clip-path="url(#clip0_276_342)">
<path d="M65.4188 8.80591L65.4189 8.80584C65.4184 8.80458 65.4174 8.80184 65.4159 8.79839C64.9703 7.62554 64.2777 6.54976 63.3639 5.63602C61.6641 3.93618 59.404 3 57 3C54.596 3 52.336 3.93618 50.6361 5.63605C48.9362 7.33596 48 9.59602 48 12C48 14.404 48.9362 16.6641 50.6361 18.3639C52.336 20.0638 54.596 21 57 21C59.404 21 61.6641 20.0638 63.3639 18.3639C65.0638 16.664 66 14.404 66 12C66 10.891 65.8003 9.81279 65.4188 8.80591ZM57 3.5625C57.7532 3.5625 58.4911 3.66104 59.1996 3.85103C57.8567 4.23398 56.8465 4.13681 56.2002 3.96529C55.9117 3.88875 55.6721 3.79204 55.4819 3.69834C55.9779 3.6088 56.4853 3.5625 57 3.5625ZM54.6958 3.87975C54.9037 4.03426 55.345 4.31404 56.0165 4.49839C56.382 4.59873 56.8505 4.67857 57.4159 4.67857C58.1493 4.67857 59.0462 4.54343 60.0923 4.14529C61.1566 4.56396 62.1332 5.20085 62.9662 6.03384C63.3699 6.43758 63.7275 6.87517 64.0367 7.33997C62.7885 6.58189 61.0711 6.35275 58.929 6.6591C56.3369 7.02986 54.392 6.64324 53.2169 6.25368C52.4542 6.00083 51.9082 5.7142 51.5915 5.5238C52.5077 4.75591 53.5625 4.19946 54.6958 3.87975ZM51.0338 6.03377C51.0737 5.9938 51.1143 5.9546 51.1549 5.91551C51.4671 6.11657 52.0877 6.46873 53.0094 6.7774C55.2512 7.5283 57.5091 7.43032 59.0085 7.21587C60.4139 7.01488 62.3866 6.96313 63.8047 7.85764C64.4646 8.27393 64.8011 8.78225 64.8902 8.99878C65.1414 9.66021 65.3085 10.3546 65.3864 11.0688C65.0931 11.2864 64.4791 11.6119 63.5738 11.7758C61.29 12.1891 58.6443 11.3729 56.827 10.6154C55.2923 9.9757 53.8779 9.66826 52.6227 9.70286C51.6021 9.73063 50.6841 9.98217 49.8943 10.4505C49.2988 10.8035 48.869 11.2243 48.5724 11.589C48.6724 9.48963 49.5374 7.53016 51.0338 6.03377ZM57 20.4375C56.39 20.4375 55.7902 20.3727 55.2077 20.2473C55.4291 20.1206 55.7196 19.9839 56.0818 19.8724C57.3855 19.4709 58.7778 19.6435 59.8802 19.9351C58.9691 20.2651 57.9978 20.4375 57 20.4375ZM62.9662 17.9662C62.2925 18.64 61.5246 19.1852 60.6926 19.5908C59.4352 19.1735 57.5968 18.8022 55.8749 19.3477C55.1865 19.5658 54.7266 19.8648 54.4803 20.0562C53.1933 19.6554 52.0141 18.9466 51.0338 17.9662C50.786 17.7184 50.5555 17.4579 50.3429 17.1861C51.14 16.8096 53.9269 15.7507 57.448 17.3194C58.62 17.8416 59.6749 18.0265 60.5813 18.0265C61.4788 18.0265 62.2308 17.8452 62.8065 17.6304C63.0946 17.5229 63.3531 17.4025 63.5814 17.2805C63.39 17.5182 63.1851 17.7473 62.9662 17.9662ZM64.3914 16.0234C64.3851 16.0299 63.7514 16.6776 62.6099 17.1034C61.0698 17.6779 59.4101 17.5778 57.6769 16.8056C55.3662 15.7761 53.3611 15.8316 52.086 16.0594C51.0531 16.2439 50.326 16.5632 50.0063 16.7237C49.1752 15.4987 48.6844 14.0797 48.5827 12.5845C48.7178 12.3221 49.1902 11.5218 50.1811 10.9343C50.8876 10.5155 51.7142 10.2904 52.6379 10.2652C53.8134 10.2333 55.1497 10.5257 56.6105 11.1346C58.1308 11.7683 59.5598 12.1781 60.8576 12.3524C61.9064 12.4932 62.874 12.4817 63.7336 12.3183C64.522 12.1684 65.0779 11.9169 65.432 11.7082C65.4352 11.8053 65.4375 11.9025 65.4375 12.0001C65.4375 13.4358 65.0808 14.8164 64.4103 16.0417L64.3914 16.0234Z" fill="black"/>
</g>
<defs>
<clipPath id="clip0_276_342">
<rect width="18" height="18" fill="white" transform="translate(48 3)"/>
</clipPath>
</defs>
</svg>
