<svg width="330" height="199" viewBox="0 0 330 199" fill="none" xmlns="http://www.w3.org/2000/svg">
<path d="M1.584 185V173.8H10.416V185H9.152V174.952H2.848V185H1.584ZM20.24 183.928C19.408 184.771 18.3787 185.192 17.152 185.192C15.9253 185.192 14.9013 184.771 14.08 183.928C13.2693 183.085 12.864 182.067 12.864 180.872C12.864 179.688 13.2747 178.675 14.096 177.832C14.928 176.979 15.9573 176.552 17.184 176.552C18.4107 176.552 19.4347 176.973 20.256 177.816C21.0773 178.659 21.488 179.677 21.488 180.872C21.488 182.056 21.072 183.075 20.24 183.928ZM17.184 184.088C18.0693 184.088 18.7947 183.779 19.36 183.16C19.936 182.541 20.224 181.779 20.224 180.872C20.224 179.976 19.9253 179.213 19.328 178.584C18.7413 177.955 18.016 177.64 17.152 177.64C16.2667 177.64 15.5413 177.955 14.976 178.584C14.4107 179.203 14.128 179.965 14.128 180.872C14.128 181.768 14.4213 182.531 15.008 183.16C15.5947 183.779 16.32 184.088 17.184 184.088ZM28.5166 185V176.728H32.5166C33.338 176.728 33.994 176.915 34.4846 177.288C34.9753 177.661 35.2206 178.163 35.2206 178.792C35.2206 179.677 34.762 180.312 33.8446 180.696C35.0606 181.027 35.6686 181.709 35.6686 182.744C35.6686 183.437 35.3966 183.987 34.8526 184.392C34.3086 184.797 33.578 185 32.6606 185H28.5166ZM29.7486 183.944H32.5006C33.0873 183.944 33.5513 183.821 33.8926 183.576C34.234 183.331 34.4046 182.989 34.4046 182.552C34.4046 182.147 34.2233 181.832 33.8606 181.608C33.5086 181.384 33.002 181.272 32.3406 181.272H29.7486V183.944ZM29.7486 180.28H32.2926C32.8046 180.28 33.21 180.168 33.5086 179.944C33.818 179.709 33.9726 179.379 33.9726 178.952C33.9726 178.6 33.8286 178.317 33.5406 178.104C33.2526 177.891 32.8473 177.784 32.3246 177.784H29.7486V180.28ZM41.6196 185.192C40.425 185.192 39.417 184.771 38.5956 183.928C37.785 183.075 37.3796 182.056 37.3796 180.872C37.3796 179.688 37.785 178.675 38.5956 177.832C39.417 176.979 40.425 176.552 41.6196 176.552C42.8996 176.552 44.0036 177.043 44.9316 178.024L44.1476 178.856C43.3796 178.045 42.5316 177.64 41.6036 177.64C40.7716 177.64 40.0676 177.955 39.4916 178.584C38.9263 179.203 38.6436 179.965 38.6436 180.872C38.6436 181.768 38.9316 182.531 39.5076 183.16C40.0943 183.779 40.8196 184.088 41.6836 184.088C42.569 184.088 43.401 183.672 44.1796 182.84L44.9956 183.592C44.0356 184.659 42.9103 185.192 41.6196 185.192ZM50.6483 185.192C49.4856 185.192 48.5043 184.792 47.7043 183.992C46.9149 183.181 46.5203 182.141 46.5203 180.872C46.5203 179.667 46.8989 178.648 47.6562 177.816C48.4136 176.973 49.3576 176.552 50.4883 176.552C51.6723 176.552 52.6109 176.968 53.3043 177.8C53.9976 178.632 54.3443 179.677 54.3443 180.936C54.3443 181.096 54.3389 181.24 54.3283 181.368H47.7682C47.8536 182.211 48.1683 182.883 48.7123 183.384C49.2669 183.875 49.9229 184.12 50.6803 184.12C51.6723 184.12 52.5416 183.731 53.2883 182.952L54.0563 183.64C53.1283 184.675 51.9923 185.192 50.6483 185.192ZM47.7682 180.376H53.0963C53.0216 179.576 52.7549 178.915 52.2963 178.392C51.8483 177.859 51.2349 177.592 50.4563 177.592C49.7523 177.592 49.1496 177.853 48.6483 178.376C48.1469 178.899 47.8536 179.565 47.7682 180.376ZM56.501 185V176.728H57.669L60.757 181.08L63.845 176.728H65.029V185H63.781V178.696L60.725 182.888L57.701 178.696V185H56.501ZM72.5791 185V176.728H76.5791C77.4005 176.728 78.0565 176.915 78.5471 177.288C79.0378 177.661 79.2831 178.163 79.2831 178.792C79.2831 179.677 78.8245 180.312 77.9071 180.696C79.1231 181.027 79.7311 181.709 79.7311 182.744C79.7311 183.437 79.4591 183.987 78.9151 184.392C78.3711 184.797 77.6405 185 76.7231 185H72.5791ZM73.8111 183.944H76.5631C77.1498 183.944 77.6138 183.821 77.9551 183.576C78.2965 183.331 78.4671 182.989 78.4671 182.552C78.4671 182.147 78.2858 181.832 77.9231 181.608C77.5711 181.384 77.0645 181.272 76.4031 181.272H73.8111V183.944ZM73.8111 180.28H76.3551C76.8671 180.28 77.2725 180.168 77.5711 179.944C77.8805 179.709 78.0351 179.379 78.0351 178.952C78.0351 178.6 77.8911 178.317 77.6031 178.104C77.3151 177.891 76.9098 177.784 76.3871 177.784H73.8111V180.28ZM88.8181 183.928C87.9861 184.771 86.9568 185.192 85.7301 185.192C84.5035 185.192 83.4795 184.771 82.6581 183.928C81.8475 183.085 81.4421 182.067 81.4421 180.872C81.4421 179.688 81.8528 178.675 82.6741 177.832C83.5061 176.979 84.5355 176.552 85.7621 176.552C86.9888 176.552 88.0128 176.973 88.8341 177.816C89.6555 178.659 90.0661 179.677 90.0661 180.872C90.0661 182.056 89.6501 183.075 88.8181 183.928ZM85.7621 184.088C86.6475 184.088 87.3728 183.779 87.9381 183.16C88.5141 182.541 88.8021 181.779 88.8021 180.872C88.8021 179.976 88.5035 179.213 87.9061 178.584C87.3195 177.955 86.5941 177.64 85.7301 177.64C84.8448 177.64 84.1195 177.955 83.5541 178.584C82.9888 179.203 82.7061 179.965 82.7061 180.872C82.7061 181.768 82.9995 182.531 83.5861 183.16C84.1728 183.779 84.8981 184.088 85.7621 184.088ZM92.2979 185V176.728H99.4659V185H98.2339V177.816H93.5299V185H92.2979ZM102.22 187.56V176.728H103.452V178.392C104.284 177.165 105.34 176.552 106.62 176.552C107.676 176.552 108.598 176.947 109.388 177.736C110.177 178.515 110.572 179.56 110.572 180.872C110.572 182.163 110.177 183.203 109.388 183.992C108.598 184.781 107.676 185.176 106.62 185.176C105.318 185.176 104.262 184.589 103.452 183.416V187.56H102.22ZM106.396 184.072C107.228 184.072 107.921 183.784 108.476 183.208C109.03 182.621 109.308 181.837 109.308 180.856C109.308 179.907 109.025 179.139 108.46 178.552C107.894 177.955 107.206 177.656 106.396 177.656C105.596 177.656 104.897 177.96 104.3 178.568C103.702 179.176 103.404 179.944 103.404 180.872C103.404 181.8 103.702 182.568 104.3 183.176C104.897 183.773 105.596 184.072 106.396 184.072ZM119.709 183.928C118.877 184.771 117.847 185.192 116.621 185.192C115.394 185.192 114.37 184.771 113.549 183.928C112.738 183.085 112.333 182.067 112.333 180.872C112.333 179.688 112.743 178.675 113.565 177.832C114.397 176.979 115.426 176.552 116.653 176.552C117.879 176.552 118.903 176.973 119.725 177.816C120.546 178.659 120.957 179.677 120.957 180.872C120.957 182.056 120.541 183.075 119.709 183.928ZM116.653 184.088C117.538 184.088 118.263 183.779 118.829 183.16C119.405 182.541 119.693 181.779 119.693 180.872C119.693 179.976 119.394 179.213 118.797 178.584C118.21 177.955 117.485 177.64 116.621 177.64C115.735 177.64 115.01 177.955 114.445 178.584C113.879 179.203 113.597 179.965 113.597 180.872C113.597 181.768 113.89 182.531 114.477 183.16C115.063 183.779 115.789 184.088 116.653 184.088ZM126.917 185.192C125.722 185.192 124.714 184.771 123.893 183.928C123.082 183.075 122.677 182.056 122.677 180.872C122.677 179.688 123.082 178.675 123.893 177.832C124.714 176.979 125.722 176.552 126.917 176.552C128.197 176.552 129.301 177.043 130.229 178.024L129.445 178.856C128.677 178.045 127.829 177.64 126.901 177.64C126.069 177.64 125.365 177.955 124.789 178.584C124.223 179.203 123.941 179.965 123.941 180.872C123.941 181.768 124.229 182.531 124.805 183.16C125.391 183.779 126.117 184.088 126.981 184.088C127.866 184.088 128.698 183.672 129.477 182.84L130.293 183.592C129.333 184.659 128.207 185.192 126.917 185.192ZM134.793 185.176C133.95 185.176 133.225 184.947 132.617 184.488C132.009 184.029 131.705 183.389 131.705 182.568C131.705 181.704 132.025 181.037 132.665 180.568C133.305 180.099 134.164 179.864 135.241 179.864C136.094 179.864 136.937 179.981 137.769 180.216V179.96C137.769 179.235 137.556 178.68 137.129 178.296C136.702 177.912 136.1 177.72 135.321 177.72C134.51 177.72 133.673 177.917 132.809 178.312L132.441 177.304C133.465 176.835 134.468 176.6 135.449 176.6C136.622 176.6 137.513 176.904 138.121 177.512C138.697 178.088 138.985 178.899 138.985 179.944V185H137.769V183.768C137.033 184.707 136.041 185.176 134.793 185.176ZM135.033 184.184C135.801 184.184 136.452 183.976 136.985 183.56C137.518 183.144 137.785 182.611 137.785 181.96V181.192C136.974 180.957 136.169 180.84 135.369 180.84C134.612 180.84 134.02 180.995 133.593 181.304C133.166 181.603 132.953 182.013 132.953 182.536C132.953 183.037 133.15 183.437 133.545 183.736C133.95 184.035 134.446 184.184 135.033 184.184ZM141.595 185V176.728H142.763L145.851 181.08L148.939 176.728H150.123V185H148.875V178.696L145.819 182.888L142.795 178.696V185H141.595ZM152.812 178.408V176.728H154.284V178.408H152.812ZM152.812 185V183.32H154.284V185H152.812Z" fill="black"/>
<g filter="url(#filter0_f_276_589)">
<circle cx="230.5" cy="99.5" r="49.5" fill="#61C3ED"/>
</g>
<circle cx="230.5" cy="99.5" r="49.5" fill="#6BB8F0"/>
<g clip-path="url(#clip0_276_589)">
<path d="M252.65 78.2648C252.003 77.4731 251.034 77.0372 249.921 77.0372C249.316 77.0372 248.675 77.1645 248.016 77.4165L203.176 94.5422C200.797 95.4508 200.476 96.8143 200.497 97.5462C200.517 98.2781 200.915 99.6214 203.342 100.394C203.357 100.399 203.371 100.403 203.386 100.407L212.687 103.07L217.717 117.461C218.403 119.423 219.942 120.642 221.735 120.642C222.865 120.642 223.977 120.168 224.95 119.272L230.703 113.972L239.048 120.694C239.048 120.695 239.05 120.696 239.05 120.697L239.13 120.76C239.137 120.766 239.145 120.772 239.152 120.778C240.079 121.498 241.092 121.878 242.081 121.878H242.081C244.013 121.878 245.552 120.447 246 118.233L253.347 81.936C253.642 80.4791 253.395 79.1754 252.65 78.2648ZM215.798 102.564L233.743 93.3922L222.569 105.271C222.386 105.466 222.257 105.704 222.193 105.963L220.038 114.695L215.798 102.564ZM222.847 116.987C222.773 117.056 222.698 117.117 222.623 117.173L224.622 109.073L228.258 112.002L222.847 116.987ZM250.305 81.3193L242.958 117.617C242.887 117.964 242.662 118.772 242.081 118.772C241.794 118.772 241.433 118.616 241.064 118.331L231.609 110.714C231.608 110.713 231.606 110.712 231.604 110.711L225.978 106.178L242.137 88.9997C242.654 88.4498 242.701 87.6075 242.248 87.0034C241.794 86.3993 240.973 86.2092 240.3 86.5529L213.725 100.137L204.297 97.4382L249.123 80.3177C249.502 80.173 249.766 80.1426 249.921 80.1426C250.016 80.1426 250.185 80.154 250.248 80.2312C250.33 80.3319 250.435 80.6752 250.305 81.3193Z" fill="white"/>
</g>
<defs>
<filter id="filter0_f_276_589" x="131" y="0" width="199" height="199" filterUnits="userSpaceOnUse" color-interpolation-filters="sRGB">
<feFlood flood-opacity="0" result="BackgroundImageFix"/>
<feBlend mode="normal" in="SourceGraphic" in2="BackgroundImageFix" result="shape"/>
<feGaussianBlur stdDeviation="25" result="effect1_foregroundBlur_276_589"/>
</filter>
<clipPath id="clip0_276_589">
<rect width="52.9724" height="53" fill="white" transform="translate(200.496 73)"/>
</clipPath>
</defs>
</svg>
