<svg width="141" height="141" viewBox="0 0 141 141" fill="none" xmlns="http://www.w3.org/2000/svg">
<circle cx="70.5" cy="70.5" r="70.5" fill="#64CD81"/>
<path fill-rule="evenodd" clip-rule="evenodd" d="M91.392 48.5213C85.8665 42.9892 78.5179 39.9413 70.6892 39.938C54.5573 39.938 41.4283 53.0667 41.4218 69.2029C41.4196 74.3611 42.7671 79.3964 45.3284 83.8347L41.1763 99.0005L56.6914 94.9306C60.9664 97.2626 65.7793 98.4915 70.6773 98.4929H70.6895C86.8196 98.4929 99.95 85.3632 99.9562 69.2263C99.9594 61.4058 96.918 54.053 91.392 48.5213ZM70.6892 93.5503H70.6791C66.3143 93.5485 62.0335 92.3754 58.2981 90.1595L57.4102 89.6321L48.2033 92.0474L50.6607 83.0709L50.0822 82.1505C47.6471 78.2774 46.3612 73.8009 46.3634 69.2047C46.3684 55.7927 57.2811 44.881 70.6989 44.881C77.1963 44.8832 83.3041 47.4167 87.8967 52.0148C92.4894 56.6128 95.0171 62.7245 95.0149 69.2245C95.0092 82.6376 84.0972 93.5503 70.6892 93.5503ZM84.0323 75.3315C83.3012 74.9653 79.7057 73.1967 79.0352 72.9523C78.3654 72.7083 77.8773 72.5868 77.3903 73.3186C76.9025 74.0504 75.5013 75.6978 75.0745 76.1855C74.6477 76.6736 74.2216 76.7349 73.4902 76.3687C72.7587 76.0028 70.4026 75.2302 67.6091 72.7389C65.4354 70.7998 63.9678 68.4051 63.541 67.6733C63.1149 66.9408 63.5374 66.5832 63.8619 66.1809C64.6535 65.1978 65.4462 64.1672 65.6899 63.6795C65.9339 63.1914 65.8117 62.7642 65.6286 62.3983C65.4462 62.0324 63.9837 58.4329 63.3745 56.9682C62.7804 55.5429 62.178 55.7354 61.7288 55.713C61.3027 55.6917 60.815 55.6874 60.3273 55.6874C59.8399 55.6874 59.0475 55.8702 58.377 56.6027C57.7069 57.3349 55.8179 59.1038 55.8179 62.7032C55.8179 66.3027 58.4383 69.78 58.8038 70.2681C59.1694 70.7562 63.9606 78.1426 71.2962 81.3099C73.041 82.064 74.4029 82.5136 75.4653 82.8506C77.2172 83.4072 78.811 83.3286 80.0712 83.1404C81.4764 82.9303 84.3975 81.3712 85.0074 79.6632C85.6166 77.9548 85.6166 76.4909 85.4335 76.1855C85.2511 75.8806 84.7634 75.6978 84.0323 75.3315Z" fill="white"/>
</svg>
